<svg xmlns="http://www.w3.org/2000/svg" viewBox="0 0 206 457.26" preserveAspectRatio="none"><defs><style>.cls-1{fill:#489bd5;}.cls-2{fill:#101a3c;}</style></defs><title>body</title><g id="Layer_2" data-name="Layer 2"><g id="Desktop"><g id="Anyone"><g id="Body_with_Pants" data-name="Body with Pants"><path id="Body" class="cls-1" d="M203.27,219.85C199.91,124.12,188.7,78.29,180.45,57.1c-3.1-10.45-14.12-32.72-52.07-40.25-2.87-.94-4.62-1.39-4.7-1.41V0H84.08V15.48c-18.61,2.68-31.4,8.72-40.21,15.61a49.61,49.61,0,0,0-9.89,9v0S7.83,62.45,2.37,220.25v.16A15.67,15.67,0,0,0,0,228.75v12.42c0,8,5.77,14.48,12.86,14.48s12.89-6.48,12.89-14.48v-8.86l1.65,4.85a3.81,3.81,0,0,0,5,2.6,4.43,4.43,0,0,0,2.36-5.47l-2.17-6.37a3.67,3.67,0,0,0-.22-.53h0a26,26,0,0,0-4.77-7V220S29.5,147.3,43.16,99.5l-1,98.8h0V221a38.39,38.39,0,0,0,4.71,18.51l4.64,173.85c-.89.58-1.76,1.22-2.62,1.89-4.25,3.36-21.14,9.1-21.14,9.1-11.69,3.87-13.58,11-14.45,15.51a25.6,25.6,0,0,0,0,8.24c1.09,4.24,4.87,5.33,7,5.85,17,4.19,53.22,4.71,67-.3,1.37-.5,2.82-2.3,2.86-5.55,0-2.61,0-10.45,0-10.45L90,430.1l4.59-173.27h18.58l4.59,173.27-.15,7.56s0,7.84,0,10.45c0,3.25,1.48,5.05,2.86,5.55,13.76,5,50,4.49,67,.3,2.14-.52,5.93-1.61,7-5.85a25.32,25.32,0,0,0,0-8.24c-.87-4.49-2.75-11.64-14.44-15.51,0,0-16.9-5.74-21.14-9.1-.87-.67-1.74-1.31-2.63-1.89l4.64-173.85A38.39,38.39,0,0,0,165.59,221V198.3h0l-1.24-95.81c11.39,46.21,13.91,115.68,13.91,115.68l.19,2.24a26.14,26.14,0,0,0-4.78,7,5.27,5.27,0,0,0-.23.53l-2.16,6.37a4.42,4.42,0,0,0,2.36,5.47,3.81,3.81,0,0,0,5-2.6l1.65-4.85v8.86c0,8,5.76,14.48,12.87,14.48S206,249.17,206,241.17V228.75A15.61,15.61,0,0,0,203.27,219.85Z"/><path id="Pants" class="cls-2" d="M167.88,291.92c-.16.22-.25.13-.92.35l-2,.65c-6,1.93-19.63,4-28.07,4-9.53,0-26-3.33-30-4.69-.59-.2-.66-.11-.8-.31a2.91,2.91,0,0,1-.15-1.06l-1-32.94a1,1,0,0,0-2,0l-1,33a2.91,2.91,0,0,1-.16,1c-.15.21-.22.12-.86.34-4.18,1.4-20.48,4.66-30.07,4.66s-25.66-3.23-29.9-4.65c-.67-.22-.75-.13-.91-.35A2.86,2.86,0,0,1,40,291V199.92s0-3,1-3c.24,0,.33,0,.94.11,6.23.74,37.06,5.89,61.94,5.89,25.12,0,55.55-5.1,62.07-5.88.68-.08.79-.12,1.05-.12,1,0,1,3,1,3v91A3,3,0,0,1,167.88,291.92Z"/></g></g></g></g></svg>