<svg xmlns="http://www.w3.org/2000/svg" viewBox="0 0 139.36 153.64" preserveAspectRatio="none"><defs><style>.cls-1{fill:#489bd5;}</style></defs><title>head</title><g id="Layer_2" data-name="Layer 2"><g id="Desktop"><g id="Anyone"><path id="Face" class="cls-1" d="M131.43,70.54c.51-4.48,4.69-51.63-43.63-67.71,0,0-11.14-3.23-18.48-2.79C62-.4,50.85,2.83,50.85,2.83c-31.16,10.37-40.47,33.65-43,50.1l-.09.45a69.16,69.16,0,0,0-.49,17.37C4.08,71.83-2.6,75.54,1.07,86.94c2.47,7.72,6.33,11,9.42,12.45,9,40,32.85,50.41,47.06,53a70.3,70.3,0,0,0,11.12,1.25,70.93,70.93,0,0,0,11.56-1.28c14.39-2.68,38.19-13.17,47.34-52.48,3.24-1,7.88-4.09,10.73-12.94C142.25,74.61,134.13,71.28,131.43,70.54Z"/></g></g></g></svg>